# xmcd
#
# Track frame offsets:
#	150
#	18352
#	34235
#	48678
#	62193
#	75430
#	91469
#	104774
#	113156
#	126025
#	137167
#	148837
#
# Disc length: 2171 seconds
#
# Revision: 0
# Processed by: cddbd v1.5.1PL2 Copyright (c) Steve Scherf et al.
# Submitted via: dBpowerAMP V4.0
#
DISCID=ad08790c
DTITLE=Giuliano Teixeira - Poeira e Chão
DYEAR=2005
DGENRE=Sertanejo
TTITLE0=Querência Amada
TTITLE1=Seu Neto
TTITLE2=Há!Há!Há!
TTITLE3=Guria não faz assim
TTITLE4=Gaúcho Sertanejo
TTITLE5=Poeira e Chão
TTITLE6=Pescaria Recordação
TTITLE7=Pára de Beber
TTITLE8=Fofoqueira
TTITLE9=Viajando no Xote
TTITLE10=Estrela do Amanhã
TTITLE11=Tão Igual
EXTD=Neto do Teixeirinha\nQuerência Amada ( part. esp. Amon-Rá Lima-Família Lima]\nGuria não faz assim (part. esp. Maate Quente]\n
EXTT0=
EXTT1=
EXTT2=
EXTT3=
EXTT4=
EXTT5=
EXTT6=
EXTT7=
EXTT8=
EXTT9=
EXTT10=
EXTT11=
PLAYORDER=
